<?xml version="1.0" encoding="UTF-8"?>
<svg id="Layer_1" data-name="Layer 1" xmlns="http://www.w3.org/2000/svg" viewBox="0 0 58.62 117.18">
  <defs>
    <style>
      .cls-1 {
        stroke: #000;
        stroke-miterlimit: 10;
      }
    </style>
  </defs>
  <path class="cls-1" d="m22.52,27.4c-.36.77-2.08,1.27-8.08,0l-3.07,12.09c-2.29,4.54,2.51,5.25,2.4,10.32l-6.09,3.93c-1.61,1.04-2.68,4.66-2.68,4.66,0,0-4.74,32.78-4.49,50.13-.05,1.48.49,3.13,2.49,4.13,0,0,6.03,4,27.15,4h-.83c20.51.01,25.68-3,25.68-3,1-1,3.16-3.64,3.11-5.12.24-17.35-4.36-50.13-4.36-50.13,0,0-1.03-3.62-2.6-4.66l-5.91-3.93c-.11-5.07,4.55-5.78,2.33-10.32l-2.99-12.09c-3.08.78-6.98,1.47-7.85,0-1.26-2.13,2.27-4.74,5.27-11.74.74-6.84.46-10.94-6-14-1-.47-9.47-3.27-15,2-4.46,4.25-4.99,8.46-3,13,3.29,7.53,5.39,8.89,4.52,10.73Z"/>
</svg>