<?xml version="1.0" encoding="UTF-8"?>
<svg id="Layer_1" data-name="Layer 1" xmlns="http://www.w3.org/2000/svg" xmlns:xlink="http://www.w3.org/1999/xlink" viewBox="0 0 511 385.5">
  <defs>
    <style>
      .cls-1, .cls-2, .cls-3, .cls-4 {
        fill: none;
      }

      .cls-2 {
        stroke-width: 6px;
      }

      .cls-2, .cls-3, .cls-4 {
        stroke: #000;
        stroke-miterlimit: 10;
      }

      .cls-5 {
        clip-path: url(#clippath);
      }

      .cls-6 {
        clip-path: url(#clippath-1);
      }

      .cls-3 {
        stroke-width: 4px;
      }
    </style>
    <clipPath id="clippath">
      <rect class="cls-1" x="198.68" width="29.44" height="115.12"/>
    </clipPath>
    <clipPath id="clippath-1">
      <rect class="cls-1" x="169.47" width="29.44" height="115.12"/>
    </clipPath>
  </defs>
  <line class="cls-1" x1="193" y1="385.5" x2="241" y2="288.5"/>
  <g>
    <g id="_Mirror_Repeat_" data-name="&amp;lt;Mirror Repeat&amp;gt;">
      <g class="cls-5">
        <path class="cls-4" d="m206.23,25.35h7.85l2.99,12.09c2.22,4.54-2.44,5.25-2.33,10.32l5.91,3.93c1.57,1.04,2.6,4.66,2.6,4.66,0,0,4.6,32.78,4.36,50.13.05,1.48-1.14,2.71-2.62,2.71,0,0-5.66,5.42-26.18,5.42"/>
        <line class="cls-4" x1="198.82" y1="28.77" x2="211.73" y2="28.77"/>
        <line class="cls-4" x1="206.42" y1="25.35" x2="198.82" y2="25.35"/>
        <path class="cls-4" d="m198.82.58c.97-.29,3.21.24,5.7,1.51.62.32,1.97,1.01,3.04,2.52.76,1.07,2.3,3.85,1.14,19.64-.14,1.95-.29,3.54-.38,4.53"/>
        <path class="cls-4" d="m198.82,5.5c1.87,0,3.42.22,4.56.46,2.04.42,3.43.71,4.94,1.83.57.42,2.41,1.39,3.04,3.65.76,2.74.51,5.18.38,13.23-.03,1.76-.02,3.19,0,4.11"/>
        <path class="cls-4" d="m219.73,52.22c-4.5.51,3.12,2.17-2.67,3.14-6.84,1.14-12.93,1.36-18.23,1.14"/>
      </g>
    </g>
    <g id="_Mirror_Repeat_-2" data-name="&amp;lt;Mirror Repeat&amp;gt;">
      <g class="cls-6">
        <path class="cls-4" d="m191.36,25.35h-7.85l-2.99,12.09c-2.22,4.54,2.44,5.25,2.33,10.32l-5.91,3.93c-1.57,1.04-2.6,4.66-2.6,4.66,0,0-4.6,32.78-4.36,50.13-.05,1.48,1.14,2.71,2.62,2.71,0,0,5.66,5.42,26.18,5.42"/>
        <line class="cls-4" x1="198.77" y1="28.77" x2="185.85" y2="28.77"/>
        <line class="cls-4" x1="191.17" y1="25.35" x2="198.77" y2="25.35"/>
        <path class="cls-4" d="m198.77.58c-.97-.29-3.21.24-5.7,1.51-.62.32-1.97,1.01-3.04,2.52-.76,1.07-2.3,3.85-1.14,19.64.14,1.95.29,3.54.38,4.53"/>
        <path class="cls-4" d="m198.77,5.5c-1.87,0-3.42.22-4.56.46-2.04.42-3.43.71-4.94,1.83-.57.42-2.41,1.39-3.04,3.65-.76,2.74-.51,5.18-.38,13.23.03,1.76.02,3.19,0,4.11"/>
        <path class="cls-4" d="m177.86,52.22c4.5.51-3.12,2.17,2.67,3.14,6.84,1.14,12.93,1.36,18.23,1.14"/>
      </g>
    </g>
  </g>
  <g>
    <path d="m4.65,59.13h28.3v12.6h-12.96v5.33h12.74v11.95h-12.74v5.54h13.46v12.6H4.65v-48.02Z"/>
    <path d="m50.58,59.13l8.14,20.88,8.21-20.88h16.78l-18.72,48.02h-12.46l-18.72-48.02h16.78Z"/>
    <path d="m90.4,59.13h11.52l18.22,48.02h-15.12l-1.58-4.32h-14.54l-1.58,4.32h-15.12l18.22-48.02Zm9,33.12l-3.24-8.42-3.24,8.42h6.48Z"/>
    <path d="m118.84,59.13h13.68l-7.7,19.44h-12.24l6.26-19.44Z"/>
    <path d="m133.74,92.25c1.06.34,2.16.6,3.31.79.96.24,2.05.43,3.28.58s2.46.22,3.71.22c2.21,0,3.31-.82,3.31-2.45,0-.62-.34-1.26-1.01-1.91-.67-.65-1.52-1.37-2.56-2.16-1.03-.79-2.14-1.67-3.31-2.63-1.18-.96-2.28-2.06-3.31-3.31-1.03-1.25-1.88-2.65-2.56-4.21-.67-1.56-1.01-3.35-1.01-5.36,0-2.26.41-4.25,1.22-5.98.82-1.73,1.94-3.17,3.38-4.32s3.13-2.03,5.08-2.63c1.94-.6,4.02-.9,6.23-.9,1.15,0,2.3.06,3.46.18,1.15.12,2.18.23,3.1.32,1.06.14,2.09.29,3.1.43v13.46c-.38-.05-.82-.1-1.3-.14-.38-.05-.82-.1-1.3-.14-.48-.05-.98-.07-1.51-.07-.29,0-.65.01-1.08.04-.43.02-.84.08-1.22.18-.38.1-.72.26-1.01.5-.29.24-.43.58-.43,1.01,0,.38.32.86.97,1.44.65.58,1.44,1.25,2.38,2.02.94.77,1.97,1.66,3.1,2.66,1.13,1.01,2.16,2.16,3.1,3.46s1.73,2.76,2.38,4.39c.65,1.63.97,3.46.97,5.47s-.34,4.09-1.01,5.94c-.67,1.85-1.72,3.46-3.13,4.82-1.42,1.37-3.23,2.45-5.44,3.24-2.21.79-4.82,1.19-7.85,1.19-1.82,0-3.52-.08-5.08-.25-1.56-.17-2.94-.37-4.14-.61-1.39-.24-2.66-.53-3.82-.86v-14.4Z"/>
  </g>
  <g>
    <path d="m235.24,59.02h15.55v11.09l9.07-11.09h18.79l-16.92,21.96,17.78,26.06h-18.5l-10.22-14.83v14.83h-15.55v-48.02Z"/>
    <path d="m280.96,59.02h16.27v48.02h-16.27v-48.02Z"/>
    <path d="m308.61,71.62h-8.86v-12.6h33.55v12.6h-8.86v35.42h-15.84v-35.42Z"/>
    <path d="m334.75,83.06c0-3.84.67-7.31,2.02-10.4,1.34-3.1,3.17-5.75,5.47-7.96,2.3-2.21,4.99-3.9,8.06-5.08,3.07-1.17,6.34-1.76,9.79-1.76,2.74,0,5.17.26,7.31.79,2.14.53,3.97,1.13,5.51,1.8,1.78.77,3.31,1.61,4.61,2.52l-7.56,13.32c-.77-.58-1.61-1.13-2.52-1.66-.82-.38-1.79-.76-2.92-1.12-1.13-.36-2.41-.54-3.85-.54s-2.86.26-4.1.79c-1.25.53-2.34,1.25-3.28,2.16-.94.91-1.67,1.98-2.2,3.2-.53,1.22-.79,2.53-.79,3.92s.28,2.7.83,3.92c.55,1.22,1.31,2.29,2.27,3.2.96.91,2.09,1.63,3.38,2.16,1.3.53,2.71.79,4.25.79s2.9-.19,4.1-.58c1.2-.38,2.21-.82,3.02-1.3.96-.53,1.8-1.15,2.52-1.87l7.56,13.32c-1.3,1.06-2.83,1.99-4.61,2.81-1.54.67-3.38,1.3-5.54,1.87-2.16.58-4.63.86-7.42.86-3.74,0-7.2-.61-10.37-1.84-3.17-1.22-5.9-2.94-8.21-5.15-2.3-2.21-4.1-4.86-5.4-7.96-1.3-3.1-1.94-6.52-1.94-10.26Z"/>
    <path d="m380.03,59.02h15.34v16.34h8.57v-16.34h15.41v48.02h-15.41v-17.78h-8.57v17.78h-15.34v-48.02Z"/>
    <path d="m424.39,59.02h28.3v12.6h-12.96v5.33h12.74v11.95h-12.74v5.54h13.46v12.6h-28.8v-48.02Z"/>
    <path d="m457.51,59.02h12.6l13.25,18.5v-18.5h15.05v48.02h-12.67l-13.18-18.43v18.43h-15.05v-48.02Z"/>
  </g>
  <line class="cls-2" y1="126.5" x2="503" y2="126.5"/>
  <polyline class="cls-3" points="511 172.5 481 172.5 481 150.5 491 150.5 491 161.5 501 161.5 501 140.5 469 140.5 469 172.5 438 172.5 438 150.5 448 150.5 448 161.5 458 161.5 458 140.5 426 140.5 426 172.5 396 172.5 396 150.5 406 150.5 406 161.5 416 161.5 416 140.5 384 140.5 384 172.5 353 172.5 353 150.5 363 150.5 363 161.5 373 161.5 373 140.5 341 140.5 341 174.5 341 172.5 311 172.5 311 150.5 321 150.5 321 161.5 331 161.5 331 140.5 299 140.5 299 172.5 268 172.5 268 150.5 278 150.5 278 161.5 288 161.5 288 140.5 256 140.5 256 172.5 226 172.5 226 150.5 236 150.5 236 161.5 246 161.5 246 140.5 214 140.5 214 172.5 183 172.5 183 150.5 193 150.5 193 161.5 203 161.5 203 140.5 171 140.5 171 172.5 142 172.5 142 150.5 152 150.5 152 161.5 162 161.5 162 140.5 130 140.5 130 172.5 99 172.5 99 150.5 109 150.5 109 161.5 119 161.5 119 140.5 87 140.5 87 172.5 57 172.5 57 150.5 67 150.5 67 161.5 77 161.5 77 140.5 45 140.5 45 172.5 14 172.5 14 150.5 24 150.5 24 161.5 34 161.5 34 140.5 2 140.5 2 174.5"/>
</svg>